<svg xmlns="http://www.w3.org/2000/svg" width="23.204" height="23.204" viewBox="0 0 23.204 23.204">
  <g id="svgexport-6_3_" data-name="svgexport-6 (3)" transform="translate(-2.11 -2.11)">
    <g id="help" transform="translate(2.11 2.11)">
      <path id="Path_136" data-name="Path 136" d="M13.712,2.11a11.6,11.6,0,1,0,11.6,11.6,11.6,11.6,0,0,0-11.6-11.6Zm0,21.533a9.931,9.931,0,1,1,9.931-9.931,9.931,9.931,0,0,1-9.931,9.931Z" transform="translate(-2.11 -2.11)" fill="#a29486"/>
      <path id="Path_137" data-name="Path 137" d="M16.152,7.676a4.026,4.026,0,0,0-5.012,3.909.835.835,0,0,0,1.671,0,2.347,2.347,0,0,1,4.619-.61,2.372,2.372,0,0,1-.56,2.3l-.794.426A3.191,3.191,0,0,0,14.406,16.5v1.671a.835.835,0,1,0,1.671,0V16.5a1.512,1.512,0,0,1,.835-1.336l.794-.484.167-.075a4.059,4.059,0,0,0,1.219-4,3.976,3.976,0,0,0-2.94-2.932Z" transform="translate(-3.598 -3.007)" fill="#a29486"/>
      <path id="Path_138" data-name="Path 138" d="M15.835,22.37a.835.835,0,0,0-.835.835v.05a.837.837,0,1,0,.835-.885Z" transform="translate(-4.233 -5.447)" fill="#a29486"/>
    </g>
  </g>
</svg>
