<svg xmlns="http://www.w3.org/2000/svg" width="29.725" height="29.753" viewBox="0 0 29.725 29.753">
  <path id="comment" d="M5.381,3.419A14.875,14.875,0,1,1,14.872,29.75H6.217a6.205,6.205,0,0,1-6.2-6.2V13.941A14.929,14.929,0,0,1,5.381,3.419ZM19.852,8.678H14.894a1.24,1.24,0,0,0,0,2.479h4.958a1.24,1.24,0,0,0,0-2.479Zm-9.916,12.4h9.916a1.24,1.24,0,0,0,0-2.479H9.936a1.24,1.24,0,0,0,0,2.479Zm0-4.958h9.916a1.24,1.24,0,0,0,0-2.479H9.936a1.24,1.24,0,0,0,0,2.479Z" transform="translate(-0.02 0.003)" fill="#00b924"/>
</svg>
