<svg xmlns="http://www.w3.org/2000/svg" width="55.427" height="55.511" viewBox="0 0 55.427 55.511">
  <g id="svgexport-7_1_" data-name="svgexport-7 (1)" transform="translate(0)">
    <g id="Group_310" data-name="Group 310" transform="translate(0 0)">
      <path id="Path_285" data-name="Path 285" d="M79,286.619H83.95v3.652H79Z" transform="translate(-70.478 -255.544)" fill="#df4e3a"/>
      <path id="Path_286" data-name="Path 286" d="M52.565,197.4H3.634a3.248,3.248,0,0,0-3.248,3.248v27.614a3.248,3.248,0,0,0,3.248,3.248H52.565a3.248,3.248,0,0,0,3.248-3.248V200.645A3.248,3.248,0,0,0,52.565,197.4ZM13.484,224.459H5.446v-3.248h8.038Zm3.621-13.2A2.709,2.709,0,0,1,14.4,213.97H8.368a2.709,2.709,0,0,1-2.706-2.706v-4.734a2.709,2.709,0,0,1,2.706-2.706H14.4a2.709,2.709,0,0,1,2.706,2.706v4.734Zm8.8,13.2H17.869v-3.248h8.038Zm12.423,0H30.292v-3.248H38.33Zm12.423,0H42.715v-3.248h8.038Z" transform="translate(-0.386 -175.995)" fill="#df4e3a"/>
      <path id="Path_287" data-name="Path 287" d="M166.22,7.89,159.282.952a3.248,3.248,0,0,0-4.593,0l-17.2,17.2h19.055Z" transform="translate(-122.622 0)" fill="#df4e3a"/>
      <path id="Path_288" data-name="Path 288" d="M359.427,101.924l5.078-5.386-2.581-2.581-7.512,7.967Z" transform="translate(-316.029 -83.77)" fill="#df4e3a"/>
      <path id="Path_289" data-name="Path 289" d="M446.157,142.044a6.469,6.469,0,0,1,2,.316l-3.4-3.4-2.912,3.089h4.317Z" transform="translate(-393.978 -123.89)" fill="#df4e3a"/>
    </g>
  </g>
</svg>
