<svg xmlns="http://www.w3.org/2000/svg" width="38.046" height="34.898" viewBox="0 0 38.046 34.898">
  <path id="dashboard" d="M37.881,17.552A19.02,19.02,0,0,0,0,20.03,18.826,18.826,0,0,0,5.958,33.838a7.671,7.671,0,0,0,5.316,2.041h15.48a7.915,7.915,0,0,0,5.562-2.265,18.931,18.931,0,0,0,5.565-16.062ZM11.843,30.587A1.585,1.585,0,0,1,9.6,30.73,14.254,14.254,0,0,1,19.02,5.765a14.423,14.423,0,0,1,3.565.449,1.586,1.586,0,0,1-.792,3.072A11.085,11.085,0,0,0,11.7,28.349,1.585,1.585,0,0,1,11.843,30.587ZM19.02,23.2a3.17,3.17,0,1,1,.812-6.223l5.993-5.993a1.585,1.585,0,1,1,2.241,2.241l-5.993,5.993A3.132,3.132,0,0,1,19.02,23.2Zm9.415,7.53a1.585,1.585,0,0,1-2.1-2.377,11.082,11.082,0,0,0,3.425-11.095,1.586,1.586,0,1,1,3.072-.792,14.414,14.414,0,0,1,.449,3.565,14.265,14.265,0,0,1-4.85,10.7Z" transform="translate(0 -0.982)" fill="#2b403b"/>
</svg>
