<svg xmlns="http://www.w3.org/2000/svg" width="38.821" height="30.503" viewBox="0 0 38.821 30.503">
  <g id="svgexport-7_2_" data-name="svgexport-7 (2)" opacity="0.998">
    <path id="XMLID_267_" d="M33.85,15.491a12.475,12.475,0,0,0-24.4-2.547A11.086,11.086,0,0,0,13.092,34.5H31.116A9.7,9.7,0,0,0,33.85,15.491ZM27.937,23,22.391,28.55a1.386,1.386,0,0,1-1.96,0L14.885,23a1.386,1.386,0,0,1,.98-2.367h2.773V15.092a2.773,2.773,0,1,1,5.546,0v5.546h2.773A1.386,1.386,0,0,1,27.937,23Z" transform="translate(-2 -4)" fill="#df4e3a"/>
  </g>
</svg>
