<svg xmlns="http://www.w3.org/2000/svg" xmlns:xlink="http://www.w3.org/1999/xlink" width="442.517" height="453" viewBox="0 0 442.517 453">
  <defs>
    <linearGradient id="linear-gradient" x1="0.913" y1="0.758" x2="0.236" y2="1.214" gradientUnits="objectBoundingBox">
      <stop offset="0" stop-color="#df4e3a"/>
      <stop offset="1" stop-color="#ec933a"/>
    </linearGradient>
  </defs>
  <g id="Group_93" data-name="Group 93" transform="translate(-1327 -1367)">
    <rect id="Rectangle_28" data-name="Rectangle 28" width="271" height="453" transform="translate(1327 1367)" fill="#e0ddcf"/>
    <g id="Component_3_2" data-name="Component 3 – 2" transform="translate(1426.483 1391.124)">
      <g id="Group_72" data-name="Group 72">
        <path id="Path_4" data-name="Path 4" d="M447.382,225.273c-6.83-17.455-6.83-32.633,9.107-43.258,12.9-9.107,27.321-9.107,40.222-.759,16.7,10.625,16.7,26.562,9.866,44.016,50.088,9.866,89.551,34.91,116.112,78.926,17.455,29.6,25.044,62.23,25.044,97.14,0,12.143-4.553,16.7-16.7,16.7H321.4c-13.66,0-16.7-6.83-16.7-18.214-.759-81.962,50.088-150.263,129.773-171.512a103.49,103.49,0,0,0,12.9-3.036M354.8,380.089H600.68c-5.312-67.542-56.918-114.595-123.7-114.595-66.784.759-116.871,47.052-122.184,114.595M493.951,202.506c-8.348-6.071-13.66-12.9-18.214-12.143-5.312.759-9.866,8.348-14.419,12.9,5.312,4.553,9.866,11.383,15.178,12.143,4.554.759,9.866-6.83,17.455-12.9" transform="translate(-304.699 -175.087)" fill="url(#linear-gradient)"/>
        <path id="Path_5" data-name="Path 5" d="M306,212.33c10.625,0,19.732.759,28.838,0,11.383-1.518,17.455,3.036,22.767,13.66,22.767,45.534,59.953,69.819,110.8,69.819,51.605,0,89.551-25.044,112.318-71.337,4.554-9.107,9.107-13.66,19.731-12.9,9.866.759,19.732,0,29.6,0,5.313,53.123-70.578,119.907-142.674,127.5C403.14,348.173,314.348,288.22,306,212.33" transform="translate(-296.125 64.768)" fill="url(#linear-gradient)"/>
        <path id="Path_6" data-name="Path 6" d="M315.2,273.738c2.277-48.57,30.356-80.444,68.3-84.238-30.356,18.214-51.605,40.222-55.4,75.131,0,3.036-8.348,6.071-12.9,9.107" transform="translate(-235.506 -80.12)" fill="url(#linear-gradient)"/>
      </g>
    </g>
  </g>
</svg>
