<svg id="svgexport-6_2_" data-name="svgexport-6 (2)" xmlns="http://www.w3.org/2000/svg" width="22.504" height="22.51" viewBox="0 0 22.504 22.51">
  <g id="Layer_92" data-name="Layer 92" transform="translate(0 0)">
    <path id="Path_282" data-name="Path 282" d="M21.879,3.012a3.378,3.378,0,0,0-4.808,0l-2.162,2.2,4.774,4.774L21.846,7.82a3.378,3.378,0,0,0,.034-4.808Z" transform="translate(-0.389 -2.008)" fill="#2b403b"/>
    <path id="Path_283" data-name="Path 283" d="M14.935,6.27,5.489,15.716a1.3,1.3,0,0,0-.214.293l-3.13,6.316A1.121,1.121,0,0,0,3.62,23.868l6.316-3.13a1.3,1.3,0,0,0,.293-.214l9.446-9.446Z" transform="translate(-2.013 -1.471)" fill="#2b403b"/>
    <path id="Path_284" data-name="Path 284" d="M22.259,22.252H12.126a1.126,1.126,0,0,1,0-2.252H22.259a1.126,1.126,0,0,1,0,2.252Z" transform="translate(-0.881 0.258)" fill="#2b403b"/>
  </g>
</svg>
