<svg xmlns="http://www.w3.org/2000/svg" width="28.97" height="28.963" viewBox="0 0 28.97 28.963">
  <g id="svgexport-6" transform="translate(-0.001 -0.056)">
    <g id="Group_279" data-name="Group 279" transform="translate(0.001 0.056)">
      <g id="Group_278" data-name="Group 278" transform="translate(0)">
        <path id="Path_261" data-name="Path 261" d="M26.771,9.791a8.054,8.054,0,0,0,.137-1.467,8.278,8.278,0,0,0-16.06-2.811,4.139,4.139,0,0,0-5.556,2.88,6.208,6.208,0,0,0,.921,12.349h5.174a1.035,1.035,0,1,0,0-2.07H6.213a4.139,4.139,0,0,1,0-8.278A1.035,1.035,0,0,0,7.247,9.358a2.069,2.069,0,0,1,3.518-1.475,1.035,1.035,0,0,0,1.748-.571A6.2,6.2,0,0,1,24.75,9.347q-.05.3-.13.6a1.035,1.035,0,0,0,.427,1.138,4.139,4.139,0,0,1-2.279,7.588h-3.1a1.035,1.035,0,0,0,0,2.07h3.1a6.208,6.208,0,0,0,4-10.95Z" transform="translate(-0.001 -0.056)" fill="#df4e3a"/>
      </g>
    </g>
    <g id="Group_281" data-name="Group 281" transform="translate(9.329 9.359)">
      <g id="Group_280" data-name="Group 280">
        <path id="Path_262" data-name="Path 262" d="M165.943,166.211a1.035,1.035,0,0,0-1.438,0l-3.409,3.407V154.526a1.035,1.035,0,0,0-2.07,0v15.093l-3.407-3.407a1.035,1.035,0,0,0-1.463,1.463l5.174,5.174a1.035,1.035,0,0,0,1.463,0l0,0,5.174-5.174A1.035,1.035,0,0,0,165.943,166.211Z" transform="translate(-153.865 -153.491)" fill="#df4e3a"/>
      </g>
    </g>
  </g>
</svg>
