<svg xmlns="http://www.w3.org/2000/svg" width="45.405" height="45.969" viewBox="0 0 45.405 45.969">
  <g id="Group_1111" data-name="Group 1111" transform="translate(-323.576 -5931.019)" opacity="0.51">
    <path id="Path_34473" data-name="Path 34473" d="M55.045,17.709v32.6a5.2,5.2,0,0,1-5.179,5.19H17.819A5.2,5.2,0,0,1,12.64,50.32V17.709a5.2,5.2,0,0,1,5.179-5.179H49.866" transform="translate(312.436 5919.989)" fill="none" stroke="#fff" stroke-linecap="round" stroke-linejoin="round" stroke-width="3"/>
    <circle id="Ellipse_17" data-name="Ellipse 17" cx="1.121" cy="1.121" r="1.121" transform="translate(366.416 5932.844)" fill="#fff"/>
    <path id="Path_34474" data-name="Path 34474" d="M25.748,24a5.739,5.739,0,0,0-4.9,5.6v6.73a5.762,5.762,0,0,0,5.773,5.717h5.313" transform="translate(313.429 5921.375)" fill="none" stroke="#fff" stroke-linecap="round" stroke-linejoin="round" stroke-width="2.5"/>
    <path id="Path_34475" data-name="Path 34475" d="M40.024,23.9H26.091a4.113,4.113,0,0,0-.841.078" transform="translate(313.961 5921.364)" fill="none" stroke="#fff" stroke-linecap="round" stroke-linejoin="round" stroke-width="2.5"/>
    <path id="Path_34476" data-name="Path 34476" d="M30.71,41.857h8.654A5.762,5.762,0,0,0,45.1,36.14V29.415a5.739,5.739,0,0,0-1.48-3.845" transform="translate(314.621 5921.565)" fill="none" stroke="#fff" stroke-linecap="round" stroke-linejoin="round" stroke-width="2.5"/>
    <path id="Path_34477" data-name="Path 34477" d="M33.135,30.47l3.385,1.95-3.385,1.95L29.75,36.333V28.52" transform="translate(314.505 5921.922)" fill="none" stroke="#fff" stroke-linecap="round" stroke-linejoin="round" stroke-width="2.5"/>
  </g>
</svg>
