<svg xmlns="http://www.w3.org/2000/svg" width="60" height="60" viewBox="0 0 60 60">
  <g id="Group_115" data-name="Group 115" transform="translate(-1575 -2977)">
    <g id="Ellipse_4" data-name="Ellipse 4" transform="translate(1575 2977)" fill="none" stroke="#f7f7f7" stroke-width="1">
      <circle cx="30" cy="30" r="30" stroke="none"/>
      <circle cx="30" cy="30" r="29.5" fill="none"/>
    </g>
    <path id="heart" d="M23.131,1.917a8.459,8.459,0,0,0-7.269,4.362A8.459,8.459,0,0,0,8.593,1.917,8.987,8.987,0,0,0,0,11.235c0,6.01,6.326,12.573,11.631,17.023a6.574,6.574,0,0,0,8.459,0c5.305-4.45,11.631-11.014,11.631-17.023a8.987,8.987,0,0,0-8.591-9.318ZM18.393,26.236a3.929,3.929,0,0,1-5.062,0c-6.791-5.7-10.686-11.164-10.686-15A6.344,6.344,0,0,1,8.593,4.56a6.344,6.344,0,0,1,5.948,6.675,1.322,1.322,0,0,0,2.643,0A6.344,6.344,0,0,1,23.131,4.56a6.344,6.344,0,0,1,5.948,6.675c0,3.837-3.9,9.3-10.686,15Z" transform="translate(1589.005 2991.083)" fill="#f7f7f7"/>
  </g>
</svg>
