<svg xmlns="http://www.w3.org/2000/svg" width="45.976" height="46.556" viewBox="0 0 45.976 46.556">
  <g id="Group_1110" data-name="Group 1110" transform="translate(-140.565 -5931.019)" opacity="0.51">
    <path id="Path_13" data-name="Path 13" d="M55.626,17.78V50.825a5.273,5.273,0,0,1-5.25,5.261H17.9a5.273,5.273,0,0,1-5.25-5.25V17.78a5.273,5.273,0,0,1,5.25-5.25H50.376" transform="translate(129.415 5919.989)" fill="none" stroke="#fff" stroke-linecap="round" stroke-linejoin="round" stroke-width="3"/>
    <circle id="Ellipse_7" data-name="Ellipse 7" cx="1.136" cy="1.136" r="1.136" transform="translate(183.961 5932.848)" fill="#fff" stroke="#fff" stroke-width="0.1"/>
    <path id="Path_14" data-name="Path 14" d="M26.2,34.127a13.909,13.909,0,0,1-3.818-2.1,6.136,6.136,0,0,1-2.068-4.284c0-.659-.227-3.977.886-3.9.182,0,.341.17.455.307a12.5,12.5,0,0,0,.92.989h0a13.636,13.636,0,0,0,10.1,3.818,5.614,5.614,0,0,1,8.216-5.875,6.988,6.988,0,0,0,1.8.9,4.432,4.432,0,0,0,1.4,0L47.5,23.6a20.51,20.51,0,0,0-2.909,4.466,20.852,20.852,0,0,0-1.057,4.716A13.863,13.863,0,0,1,37.67,41.63h0a11.026,11.026,0,0,1-1.341.773h0a12.578,12.578,0,0,1-1.954.886h0l-.625.216-.693.193a20.829,20.829,0,0,1-9.784-.159l-1.33-.307L20.38,42.8a11.909,11.909,0,0,0,5.409-1.659c.33-.193.67-.466.625-.83a.943.943,0,0,0-.432-.636,15.818,15.818,0,0,1-3.034-3.591" transform="translate(130.457 5921.334)" fill="none" stroke="#fff" stroke-linecap="round" stroke-linejoin="round" stroke-width="3"/>
  </g>
</svg>
