<svg xmlns="http://www.w3.org/2000/svg" width="44.849" height="46.845" viewBox="0 0 44.849 46.845">
  <g id="Group_1113" data-name="Group 1113" transform="translate(-490.617 -5931)" opacity="0.51">
    <g id="Group_14" data-name="Group 14" transform="translate(503.502 5942.543)">
      <path id="Path_7" data-name="Path 7" d="M213.41,227.489a1.679,1.679,0,0,1-1.678-1.66l-.112-11.9h0l-.112-10.63c-.131-4.587.5-7.161,2.2-8.839,2.051-2.051,5.315-2.238,8.56-2.145a1.679,1.679,0,0,1-.112,3.357c-3.357-.093-5.166.242-6.079,1.156-.932.932-1.3,2.909-1.212,6.4v.037l.019,1.865,6.564-.131h.037a1.676,1.676,0,0,1,1.678,1.641v.037a1.676,1.676,0,0,1-1.641,1.678l-6.583.131.037,5.427h0l.112,11.9a1.66,1.66,0,0,1-1.678,1.678Zm-6.937-18.872a1.679,1.679,0,1,1-.056-3.357l1.641-.056a1.679,1.679,0,1,1,.112,3.357l-1.641.056Z" transform="translate(-204.793 -192.299)" fill="#fff"/>
    </g>
    <g id="Group_15" data-name="Group 15" transform="translate(490.617 5931)">
      <path id="Path_8" data-name="Path 8" d="M169.23,177.245H147.411a1.678,1.678,0,0,1,0-3.357H169.23a7.951,7.951,0,0,0,7.981-7.907V141.664a7.951,7.951,0,0,0-7.981-7.907H146.964a7.911,7.911,0,0,0-7.907,7.907V165.7a1.678,1.678,0,0,1-3.357,0V141.664A11.277,11.277,0,0,1,146.964,130.4h22.247a11.317,11.317,0,0,1,11.338,11.264V166A11.286,11.286,0,0,1,169.23,177.245Z" transform="translate(-135.7 -130.4)" fill="#fff"/>
    </g>
  </g>
</svg>
