<svg xmlns="http://www.w3.org/2000/svg" width="60" height="60" viewBox="0 0 60 60">
  <g id="Group_117" data-name="Group 117" transform="translate(-0.416 0.136)">
    <circle id="Ellipse_4" data-name="Ellipse 4" cx="30" cy="30" r="30" transform="translate(0.416 -0.136)" fill="#f7f7f7"/>
    <g id="shopping-cart" transform="translate(15.555 15.478)">
      <path id="Path_11" data-name="Path 11" d="M29.331,5.265a3.865,3.865,0,0,0-2.974-1.391H5.478l-.054-.453A3.874,3.874,0,0,0,1.578,0H1.291a1.291,1.291,0,0,0,0,2.583h.287A1.291,1.291,0,0,1,2.86,3.723L4.637,18.832a6.457,6.457,0,0,0,6.413,5.7H24.536a1.291,1.291,0,0,0,0-2.583H11.05a3.874,3.874,0,0,1-3.642-2.583H22.8a6.457,6.457,0,0,0,6.355-5.312L30.17,8.437a3.866,3.866,0,0,0-.839-3.172Z" fill="#c49346"/>
      <circle id="Ellipse_5" data-name="Ellipse 5" cx="2.5" cy="2.5" r="2.5" transform="translate(6.861 25.387)" fill="#c49346"/>
      <circle id="Ellipse_6" data-name="Ellipse 6" cx="2.5" cy="2.5" r="2.5" transform="translate(19.861 25.387)" fill="#c49346"/>
    </g>
  </g>
</svg>
