<svg xmlns="http://www.w3.org/2000/svg" width="29.938" height="32" viewBox="0 0 29.938 32">
  <g id="Layer_x0020_1" transform="translate(-119 -119)" opacity="0.5">
    <path id="Path_6" data-name="Path 6" d="M122.091,119h23.757a3.209,3.209,0,0,1,3.09,3.3V147.7a3.209,3.209,0,0,1-3.091,3.3H122.091A3.209,3.209,0,0,1,119,147.7V122.3a3.209,3.209,0,0,1,3.091-3.3Zm9.186,22.252h-6.928v-12.5H131v2.18h-4.158v2.944h3.865v2.171h-3.865v3.031h4.435v2.18Zm12.32,0h-2.558l-4.954-8.091a10.513,10.513,0,0,1-.562-1.016h-.037q.065.645.065,1.992v7.111h-2.358v-12.5h2.719l4.768,7.858c.314.524.511.851.578.992h.037a12.748,12.748,0,0,1-.073-1.726v-7.131h2.367v12.5Z" transform="translate(0 0)" fill="#e4e4e4" fill-rule="evenodd"/>
  </g>
</svg>
