<svg id="svgexport-7_1_" data-name="svgexport-7 (1)" xmlns="http://www.w3.org/2000/svg" width="55.295" height="52.223" viewBox="0 0 55.295 52.223">
  <path id="Path_510" data-name="Path 510" d="M53.759,0H13.824a1.536,1.536,0,0,0-1.536,1.536V47.615a7.6,7.6,0,0,1-1.574,4.608h36.9a7.688,7.688,0,0,0,7.68-7.68V1.536A1.536,1.536,0,0,0,53.759,0ZM44.543,39.935H23.04a1.536,1.536,0,1,1,0-3.072h21.5a1.536,1.536,0,1,1,0,3.072Zm0-9.216H23.04a1.536,1.536,0,1,1,0-3.072h21.5a1.536,1.536,0,1,1,0,3.072Zm0-9.216H23.04a1.536,1.536,0,1,1,0-3.072h21.5a1.536,1.536,0,1,1,0,3.072Zm0-9.216H23.04a1.536,1.536,0,1,1,0-3.072h21.5a1.536,1.536,0,1,1,0,3.072ZM7.68,6.144H1.536A1.536,1.536,0,0,0,0,7.68V47.615a4.608,4.608,0,0,0,9.216,0V7.68A1.536,1.536,0,0,0,7.68,6.144Zm0,0" fill="#ec933a"/>
</svg>
