<svg xmlns="http://www.w3.org/2000/svg" width="58.262" height="58.263" viewBox="0 0 58.262 58.263">
  <g id="svgexport-7" transform="translate(0 0.001)">
    <path id="Path_507" data-name="Path 507" d="M226.875,154.272,223.82,150.2l-1.7,11.893a5.151,5.151,0,0,1-1.448,2.9l-20.921,20.921a9.607,9.607,0,0,1-6.839,2.83,9.76,9.76,0,0,1-2.263-.266,6.257,6.257,0,0,0,5.274,2.9h25.035a6.266,6.266,0,0,0,6.259-6.259V155.3A1.708,1.708,0,0,0,226.875,154.272Z" transform="translate(-168.954 -133.107)" fill="#ec933a"/>
    <circle id="Ellipse_19" data-name="Ellipse 19" cx="1.707" cy="1.707" r="1.707" transform="translate(33.516 24.943)" fill="#ec933a"/>
    <circle id="Ellipse_20" data-name="Ellipse 20" cx="1.707" cy="1.707" r="1.707" transform="translate(14.205 24.943)" fill="#ec933a"/>
    <path id="Path_508" data-name="Path 508" d="M28.384,50.387,49.3,29.466a1.707,1.707,0,0,0,.483-.966L52.2,11.6a1.707,1.707,0,0,0-.483-1.448L48.1,6.534,43.27,11.362l1.207,1.207a1.707,1.707,0,1,1-2.414,2.414l-4.828-4.828a1.707,1.707,0,0,1,2.414-2.414l1.207,1.207L45.684,4.12,42.063.5A1.709,1.709,0,0,0,40.614.016L23.717,2.43a1.707,1.707,0,0,0-.966.483L1.83,23.834a6.266,6.266,0,0,0,0,8.851l17.7,17.7a6.266,6.266,0,0,0,8.851,0Zm6.839-28.858A5.121,5.121,0,1,1,30.1,26.65a5.127,5.127,0,0,1,5.121-5.121ZM15.912,31.771a5.121,5.121,0,1,1,5.121-5.121A5.127,5.127,0,0,1,15.912,31.771Zm5.633,8.656a1.708,1.708,0,0,1-1.62-2.247l8.046-24.139a1.707,1.707,0,1,1,3.239,1.08L23.164,39.26A1.708,1.708,0,0,1,21.544,40.427Z" transform="translate(0 0)" fill="#ec933a"/>
    <path id="Path_509" data-name="Path 509" d="M407.492,2.914A1.707,1.707,0,0,0,405.078.5l-3.621,3.621,2.414,2.414Z" transform="translate(-355.773 -0.001)" fill="#ec933a"/>
  </g>
</svg>
