<svg id="svgexport-6_1_" data-name="svgexport-6 (1)" xmlns="http://www.w3.org/2000/svg" width="30.535" height="56.028" viewBox="0 0 30.535 56.028">
  <g id="Group_163" data-name="Group 163" transform="translate(0)">
    <g id="Group_162" data-name="Group 162">
      <path id="Path_224" data-name="Path 224" d="M143.037,0H120.4a3.933,3.933,0,0,0-3.922,3.922V52.106a3.933,3.933,0,0,0,3.922,3.922h22.691a3.933,3.933,0,0,0,3.922-3.922V3.922A3.982,3.982,0,0,0,143.037,0ZM131.719,3.082A1.121,1.121,0,1,1,130.6,4.2,1.124,1.124,0,0,1,131.719,3.082Zm3.362,49.864h-6.723V50.7h6.723Zm9.637-5.378H118.665V8.46h26.053Z" transform="translate(-116.48)" fill="#002c21"/>
    </g>
  </g>
</svg>
