<svg xmlns="http://www.w3.org/2000/svg" width="33.768" height="33.834" viewBox="0 0 33.768 33.834">
  <g id="svgexport-7_1_" data-name="svgexport-7 (1)" transform="translate(0 0)" opacity="0.5">
    <g id="Group_392" data-name="Group 392" transform="translate(0 0)">
      <path id="Path_332" data-name="Path 332" d="M110.572,6.542V4.956A4.962,4.962,0,0,0,105.615,0H93.456A4.962,4.962,0,0,0,88.5,4.956V6.542Z" transform="translate(-82.685)" fill="#2b403b"/>
      <path id="Path_333" data-name="Path 333" d="M118.5,319v10.771a1.982,1.982,0,0,0,1.982,1.983h14.142a1.982,1.982,0,0,0,1.982-1.983V319Zm11.7,8.459H124.91a.991.991,0,1,1,0-1.982H130.2a.991.991,0,0,1,0,1.982Zm0-4.229H124.91a.991.991,0,0,1,0-1.983H130.2a.991.991,0,0,1,0,1.983Z" transform="translate(-110.702 -297.92)" fill="#2b403b"/>
      <path id="Path_334" data-name="Path 334" d="M29.312,129H5.456A4.962,4.962,0,0,0,.5,133.956v7.93a4.962,4.962,0,0,0,4.956,4.956h.859v-5.287H5.721a.991.991,0,0,1,0-1.982H28.982a.991.991,0,0,1,0,1.982h-.595v5.287h.925a4.962,4.962,0,0,0,4.956-4.956v-7.93A4.962,4.962,0,0,0,29.312,129Zm-20.42,6.212H5.721a.991.991,0,0,1,0-1.982H8.892a.991.991,0,0,1,0,1.982Z" transform="translate(-0.5 -120.475)" fill="#2b403b"/>
    </g>
  </g>
</svg>
