<svg xmlns="http://www.w3.org/2000/svg" width="32.275" height="32.338" viewBox="0 0 32.275 32.338">
  <g id="svgexport-7_1_" data-name="svgexport-7 (1)" transform="translate(0 0)">
    <g id="Group_392" data-name="Group 392" transform="translate(0 0)">
      <path id="Path_332" data-name="Path 332" d="M109.6,6.253V4.737A4.742,4.742,0,0,0,104.858,0H93.237A4.742,4.742,0,0,0,88.5,4.737V6.253Z" transform="translate(-82.942)" fill="#2b403b"/>
      <path id="Path_333" data-name="Path 333" d="M118.5,319v10.3a1.9,1.9,0,0,0,1.895,1.895h13.516a1.9,1.9,0,0,0,1.895-1.895V319Zm11.179,8.084h-5.053a.947.947,0,1,1,0-1.895h5.053a.947.947,0,1,1,0,1.895Zm0-4.042h-5.053a.947.947,0,0,1,0-1.895h5.053a.947.947,0,0,1,0,1.895Z" transform="translate(-111.047 -298.852)" fill="#2b403b"/>
      <path id="Path_334" data-name="Path 334" d="M28.038,129H5.237A4.742,4.742,0,0,0,.5,133.737v7.579a4.742,4.742,0,0,0,4.737,4.737h.821V141H5.49a.947.947,0,0,1,0-1.895H27.722a.947.947,0,0,1,0,1.895h-.568v5.053h.884a4.742,4.742,0,0,0,4.737-4.737v-7.579A4.742,4.742,0,0,0,28.038,129ZM8.521,134.937H5.49a.947.947,0,1,1,0-1.895H8.521a.947.947,0,1,1,0,1.895Z" transform="translate(-0.5 -120.852)" fill="#2b403b"/>
    </g>
  </g>
</svg>
