<svg id="svgexport-6_1_" data-name="svgexport-6 (1)" xmlns="http://www.w3.org/2000/svg" width="48" height="48" viewBox="0 0 48 48">
  <path id="Path_279" data-name="Path 279" d="M39,48H9a9,9,0,0,1-9-9V9A9,9,0,0,1,9,0H39a9,9,0,0,1,9,9V39A9,9,0,0,1,39,48Z" fill="#df4e3a" opacity="0.3"/>
  <path id="Path_280" data-name="Path 280" d="M22.1,8H10.721A2.72,2.72,0,0,0,8,10.721V26.062a2.72,2.72,0,0,0,2.721,2.723h6.522a8.644,8.644,0,0,1-.831-3.712,8.557,8.557,0,0,1,.624-3.226.5.5,0,0,1-.129.01H11.958a.99.99,0,1,1,0-1.98h4.948a.981.981,0,0,1,.871.534A8.72,8.72,0,0,1,20.233,17.9H11.959a.99.99,0,0,1,0-1.98h8.908a.993.993,0,0,1,.99.99.506.506,0,0,1-.01.129,8.294,8.294,0,0,1,2.98-.613v-5.7A2.723,2.723,0,0,0,22.1,8Zm-6.186,5.938H11.958a.99.99,0,0,1,0-1.98h3.959a.99.99,0,1,1,0,1.98Z" transform="translate(4.068 4.096)" fill="#df4e3a"/>
  <path id="Path_281" data-name="Path 281" d="M21.681,15a6.681,6.681,0,1,0,6.681,6.681A6.689,6.689,0,0,0,21.681,15ZM24.4,22.671H22.67V24.4a.99.99,0,1,1-1.98,0V22.671H18.956a.99.99,0,0,1,0-1.98h1.733V18.958a.99.99,0,0,1,1.98,0v1.733h1.733a.99.99,0,1,1,0,1.98Z" transform="translate(7.59 7.59)" fill="#df4e3a" opacity="0.7"/>
</svg>
