<svg id="svgexport-6" xmlns="http://www.w3.org/2000/svg" width="22.748" height="26.47" viewBox="0 0 22.748 26.47">
  <path id="Path_276" data-name="Path 276" d="M416.833,15.744h4.7l-4.949-4.861V15.5A.247.247,0,0,0,416.833,15.744Zm0,0" transform="translate(-399.246 -10.433)" fill="#e0d9bf"/>
  <path id="Path_277" data-name="Path 277" d="M14.919,6.862a1.8,1.8,0,0,1-1.8-1.8V0H.226A2.9,2.9,0,0,0-2.668,2.894V23.577A2.9,2.9,0,0,0,.226,26.47h16.96a2.9,2.9,0,0,0,2.894-2.894V6.862Zm-1.773,13.2H3.158a.775.775,0,0,1,0-1.551h9.988a.775.775,0,0,1,0,1.551ZM2.382,16.182a.775.775,0,0,1,.775-.775h8.913a.775.775,0,0,1,0,1.551H3.158A.775.775,0,0,1,2.382,16.182Zm11.707-2.326H3.158a.775.775,0,0,1,0-1.551H14.089a.775.775,0,0,1,0,1.551Zm0,0" transform="translate(2.668)" fill="#e0d9bf"/>
</svg>
