<svg id="trash" xmlns="http://www.w3.org/2000/svg" width="21.985" height="26.382" viewBox="0 0 21.985 26.382">
  <path id="Path_278" data-name="Path 278" d="M63.553,4.4H60.145A5.506,5.506,0,0,0,54.759,0h-2.2a5.506,5.506,0,0,0-5.386,4.4H43.766a1.1,1.1,0,0,0,0,2.2h1.1v14.29a5.5,5.5,0,0,0,5.5,5.5h6.6a5.5,5.5,0,0,0,5.5-5.5V6.6h1.1a1.1,1.1,0,0,0,0-2.2ZM52.56,18.687a1.1,1.1,0,0,1-2.2,0v-6.6a1.1,1.1,0,1,1,2.2,0v6.6Zm4.4,0a1.1,1.1,0,1,1-2.2,0v-6.6a1.1,1.1,0,1,1,2.2,0ZM49.45,4.4a3.3,3.3,0,0,1,3.11-2.2h2.2a3.3,3.3,0,0,1,3.11,2.2Z" transform="translate(-42.667)" fill="#df4e3a"/>
</svg>
