<svg xmlns="http://www.w3.org/2000/svg" width="35.068" height="35.068" viewBox="0 0 35.068 35.068">
  <path id="users" d="M10.959,19a6.575,6.575,0,1,1,6.575-6.575A6.575,6.575,0,0,1,10.959,19Zm9.5,16.073h-19A1.461,1.461,0,0,1,0,33.607v-.731a10.959,10.959,0,1,1,21.918,0v.731a1.461,1.461,0,0,1-1.462,1.461Zm5.114-21.918A6.575,6.575,0,1,1,32.148,6.58,6.575,6.575,0,0,1,25.573,13.155ZM23.494,16.1a9.973,9.973,0,0,0-6.824,4.137,13.935,13.935,0,0,1,7.18,7.522h9.756A1.461,1.461,0,0,0,35.068,26.3v-.056A10.24,10.24,0,0,0,23.494,16.1Z" transform="translate(0 -0.005)" fill="#2b403b"/>
</svg>
